<svg width="44" height="36" viewBox="0 0 44 36" fill="none" xmlns="http://www.w3.org/2000/svg">
<path d="M29.5007 12.4717C29.5007 12.4717 30.25 7.47778 30.25 5.99925C30.25 4.52072 24.2072 0.80625 24.0137 0.47475C22.7462 -0.15825 21.2552 -0.15825 19.9892 0.47475C19.7957 0.80625 13.75 4.0245 13.75 5.76225C13.75 7.5 14.5022 12.4717 14.5022 12.4717L10.1942 29.7037C9.81317 31.2277 10.1507 32.8102 11.1167 34.0492C12.0842 35.2867 13.5392 35.9977 15.1097 35.9977H28.8932C30.4637 35.9977 31.9202 35.2867 32.8862 34.0492C33.8537 32.8102 34.1897 31.2262 33.8087 29.7022L29.5007 12.4717ZM25.0007 6.75C25.7062 8.03297 25.0007 10.4992 25.0007 10.4992H19.0007C19.0007 10.4992 18.2952 8.03299 19.0007 6.75C19.6784 5.51746 20.5934 4.75604 22 4.75575C23.407 4.75546 24.3227 5.5171 25.0007 6.75ZM29.3402 31.2802C29.2622 31.3792 29.1212 31.4992 28.8932 31.4992H25.0007V28.4992C25.0007 26.8417 23.6575 27 22 27C20.3425 27 19.0007 26.8417 19.0007 28.4992V31.4992H15.1082C14.8802 31.4992 14.7392 31.3807 14.6612 31.2802C14.5832 31.1797 14.5022 31.0147 14.5577 30.7957L18.5072 14.9992H25.4942L29.4437 30.7942C29.4992 31.0147 29.4167 31.1812 29.3402 31.2802ZM39.7637 13.7542C39.3692 14.5417 38.5742 14.9977 37.7492 14.9977C37.4102 14.9977 37.0682 14.9212 36.7442 14.7607L33.7442 13.2607C32.6327 12.7042 32.1827 11.3542 32.7377 10.2412C33.2942 9.13125 34.6457 8.68275 35.7572 9.23475L38.7572 10.7347C39.8687 11.2912 40.3187 12.6412 39.7637 13.7542ZM4.23767 1.24275C4.79417 0.13275 6.14567 -0.31575 7.25717 0.23625L10.2572 1.73625C11.3687 2.29275 11.8187 3.64275 11.2637 4.75575C10.8692 5.54325 10.0742 5.99925 9.24917 5.99925C8.91017 5.99925 8.56817 5.92275 8.24417 5.76225L5.24417 4.26225C4.13267 3.70575 3.68267 2.35425 4.23767 1.24275ZM32.7377 4.75575C32.1827 3.64425 32.6327 2.29275 33.7442 1.73625L36.7442 0.23625C37.8587 -0.31575 39.2087 0.13275 39.7637 1.24275C40.3187 2.35425 39.8687 3.70575 38.7572 4.26225L35.7572 5.76225C35.4332 5.92275 35.0912 5.99925 34.7522 5.99925C33.9272 5.99925 33.1322 5.54325 32.7377 4.75575ZM10.2572 13.2622L7.25717 14.7622C6.93317 14.9227 6.59117 14.9992 6.25217 14.9992C5.42717 14.9992 4.63217 14.5432 4.23767 13.7557C3.68267 12.6442 4.13267 11.2927 5.24417 10.7362L8.24417 9.23625C9.35717 8.68425 10.7087 9.13275 11.2637 10.2427C11.8187 11.3542 11.3687 12.7057 10.2572 13.2622Z" fill="#20B5CF" fill-opacity="0.8"/>
</svg>
